<?xml version="1.0" encoding="UTF-8"?>
<svg xmlns="http://www.w3.org/2000/svg" xmlns:xlink="http://www.w3.org/1999/xlink" width="128px" height="128px" viewBox="0 0 600 600" version="1.1">
<g id="surface1">
<path style=" stroke:none;fill-rule:nonzero;fill:rgb(0%,0%,0%);fill-opacity:1;" d="M 128.433594 280.042969 C 124.949219 287.324219 120.410156 294.046875 114.960938 300 C 120.410156 305.953125 124.949219 312.675781 128.433594 319.957031 C 140.625 345.101562 140.625 374.597656 140.625 403.125 C 140.625 463.914062 144.949219 478.125 187.5 478.125 C 203.03125 478.125 215.625 490.71875 215.625 506.25 C 215.625 521.78125 203.03125 534.375 187.5 534.375 C 142.628906 534.375 112.035156 518.199219 96.566406 486.292969 C 84.375 461.148438 84.375 431.652344 84.375 403.125 C 84.375 342.335938 80.050781 328.125 37.5 328.125 C 21.96875 328.125 9.375 315.53125 9.375 300 C 9.375 284.46875 21.96875 271.875 37.5 271.875 C 80.050781 271.875 84.375 257.664062 84.375 196.875 C 84.375 168.347656 84.375 138.851562 96.566406 113.707031 C 112.035156 81.800781 142.628906 65.625 187.5 65.625 C 203.03125 65.625 215.625 78.21875 215.625 93.75 C 215.625 109.28125 203.03125 121.875 187.5 121.875 C 144.949219 121.875 140.625 136.085938 140.625 196.875 C 140.625 225.402344 140.625 254.898438 128.433594 280.042969 Z M 562.5 271.875 C 519.949219 271.875 515.625 257.664062 515.625 196.875 C 515.625 168.347656 515.625 138.851562 503.433594 113.707031 C 487.964844 81.800781 457.371094 65.625 412.5 65.625 C 396.96875 65.625 384.375 78.21875 384.375 93.75 C 384.375 109.28125 396.96875 121.875 412.5 121.875 C 455.050781 121.875 459.375 136.085938 459.375 196.875 C 459.375 225.402344 459.375 254.898438 471.566406 280.042969 C 475.050781 287.324219 479.589844 294.046875 485.039062 300 C 479.589844 305.953125 475.050781 312.675781 471.566406 319.957031 C 459.375 345.101562 459.375 374.597656 459.375 403.125 C 459.375 463.914062 455.050781 478.125 412.5 478.125 C 396.96875 478.125 384.375 490.71875 384.375 506.25 C 384.375 521.78125 396.96875 534.375 412.5 534.375 C 457.371094 534.375 487.964844 518.199219 503.433594 486.292969 C 515.625 461.148438 515.625 431.652344 515.625 403.125 C 515.625 342.335938 519.949219 328.125 562.5 328.125 C 578.03125 328.125 590.625 315.53125 590.625 300 C 590.625 284.46875 578.03125 271.875 562.5 271.875 Z M 562.5 271.875 "/>
</g>
</svg>
