<?xml version="1.0" standalone="no"?>
<!DOCTYPE svg PUBLIC "-//W3C//DTD SVG 20010904//EN"
 "http://www.w3.org/TR/2001/REC-SVG-20010904/DTD/svg10.dtd">
<svg version="1.0" xmlns="http://www.w3.org/2000/svg"
 width="128.000000pt" height="128.000000pt" viewBox="0 0 128.000000 128.000000"
 preserveAspectRatio="xMidYMid meet">

<g transform="translate(0.000000,128.000000) scale(0.100000,-0.100000)"
fill="#000000" stroke="none">
<path d="M363 1106 c-59 -19 -104 -49 -152 -101 -65 -71 -85 -124 -85 -230 0
-78 3 -97 27 -146 32 -67 109 -142 175 -172 66 -30 188 -30 254 0 66 30 143
105 175 172 24 48 27 68 27 146 0 78 -3 98 -27 146 -32 67 -109 142 -175 171
-58 26 -162 33 -219 14z"/>
<path d="M860 417 c-50 -26 -90 -90 -90 -142 0 -52 40 -116 90 -142 55 -29 95
-29 150 0 50 26 90 90 90 142 0 52 -40 116 -90 142 -55 29 -95 29 -150 0z"/>
</g>
</svg>
